<?xml version="1.0" encoding="iso-8859-1"?>
<!-- Generator: Adobe Illustrator 19.0.0, SVG Export Plug-In . SVG Version: 6.00 Build 0)  -->
<svg version="1.1" id="Capa_1" xmlns="http://www.w3.org/2000/svg" xmlns:xlink="http://www.w3.org/1999/xlink" x="0px" y="0px"
	 viewBox="0 0 512 512" style="enable-background:new 0 0 512 512;" xml:space="preserve">
<circle style="fill:#005ECE;" cx="256" cy="256" r="256"/>
<path style="fill:#00479B;" d="M510.849,280.253l-96.289-96.289c-14.658-16.91-36.279-27.622-60.415-27.622
	c-6.489,0-12.796,0.777-18.835,2.237l-34.794-34.794l-0.041,0.041H189.217H77.913v208.696l179.46,179.46
	C389.954,511.284,498.671,409.813,510.849,280.253z"/>
<polygon style="fill:#FFFFFF;" points="77.913,123.826 77.913,332.522 189.217,332.522 244.87,388.174 244.87,332.522 
	300.522,332.522 300.522,123.826 "/>
<polygon style="fill:#BDFDFF;" points="189.217,123.826 189.217,332.522 244.87,388.174 244.87,332.522 300.522,332.522 
	300.522,123.826 "/>
<g>
	<polygon style="fill:#003F8A;" points="203.13,276.87 203.13,207.304 175.304,207.304 175.304,276.87 147.478,276.87 
		147.478,304.696 175.304,304.696 203.13,304.696 230.957,304.696 230.957,276.87 	"/>
	<circle style="fill:#003F8A;" cx="189.217" cy="172.522" r="20.87"/>
</g>
<path style="fill:#FFFFFF;" d="M418.098,388.174H290.19v-7.994c0-35.32,28.633-63.953,63.953-63.953l0,0
	c35.32,0,63.953,28.633,63.953,63.953v7.994H418.098z"/>
<path style="fill:#E1E3FA;" d="M370.134,316.226h-15.989v71.948h63.953v-23.983C418.098,337.701,396.624,316.226,370.134,316.226z"
	/>
<polygon points="370.134,388.174 354.145,388.174 338.156,388.174 354.145,308.232 "/>
<polygon points="354.145,340.208 370.134,316.226 338.156,316.226 "/>
<path style="fill:#3E3D42;" d="M290.19,364.191v23.983h63.953l-23.77-71.31C307.586,320.583,290.19,340.351,290.19,364.191z"/>
<path style="fill:#2D2D30;" d="M377.915,316.863l-23.77,71.31h63.953v-23.983C418.098,340.351,400.703,320.583,377.915,316.863z"/>
<path style="fill:#1D1D1F;" d="M354.145,156.341L354.145,156.341c-12.82,0-24.932,3.023-35.671,8.387
	c-1.396-0.253-2.832-0.392-4.301-0.392c-13.244,0-23.981,10.735-23.983,23.978c-0.081,0.108-0.161,0.216-0.242,0.324
	c-13.441,2.042-23.741,13.648-23.741,27.66c0,7.624,3.053,14.533,7.999,19.58c-0.001,0.136-0.006,0.27-0.006,0.406v31.977h159.885
	v-31.977C434.087,192.132,398.296,156.341,354.145,156.341z"/>
<path d="M354.145,156.341L354.145,156.341V268.26h79.942v-31.977C434.087,192.132,398.296,156.341,354.145,156.341z"/>
<path style="fill:#FFC477;" d="M306.179,284.249H290.19c-8.794,0-15.989-7.195-15.989-15.989l0,0
	c0-8.794,7.195-15.989,15.989-15.989h15.989V284.249z"/>
<path style="fill:#FFB655;" d="M402.11,284.249h15.989c8.794,0,15.989-7.195,15.989-15.989l0,0c0-8.794-7.195-15.989-15.989-15.989
	H402.11V284.249z"/>
<path style="fill:#FFDAAA;" d="M380.668,227.329c-2.54-1.904-4.935-3.912-7.194-5.999c-22.803,14.808-49.632,22.949-77.418,22.949
	h-13.416c-0.29,2.626-0.444,5.291-0.444,7.994c0,39.736,32.213,71.948,71.948,71.948s71.948-32.213,71.948-71.948
	c0-2.726-0.157-5.415-0.452-8.062C410.909,243.614,394.896,238,380.668,227.329z"/>
<path style="fill:#FFC477;" d="M425.64,244.21c-14.731-0.595-30.746-6.21-44.974-16.88c-2.54-1.904-4.935-3.912-7.194-5.999
	c-6.167,4.006-12.632,7.519-19.329,10.518v92.371c39.736,0,71.948-32.213,71.948-71.948
	C426.093,249.547,425.936,246.857,425.64,244.21z"/>
<circle cx="316.505" cy="262.6" r="10.326"/>
<circle cx="391.78" cy="262.6" r="10.326"/>
<path style="fill:#F072AE;" d="M354.145,308.232c13.245,0,23.983-10.738,23.983-23.983h-47.965
	C330.162,297.494,340.9,308.232,354.145,308.232z"/>
<path style="fill:#ED539D;" d="M354.145,284.249v23.983c13.245,0,23.983-10.738,23.983-23.983H354.145z"/>
<g>
</g>
<g>
</g>
<g>
</g>
<g>
</g>
<g>
</g>
<g>
</g>
<g>
</g>
<g>
</g>
<g>
</g>
<g>
</g>
<g>
</g>
<g>
</g>
<g>
</g>
<g>
</g>
<g>
</g>
</svg>
