<?xml version="1.0" encoding="iso-8859-1"?>
<!-- Generator: Adobe Illustrator 19.0.0, SVG Export Plug-In . SVG Version: 6.00 Build 0)  -->
<svg version="1.1" id="Layer_1" xmlns="http://www.w3.org/2000/svg" xmlns:xlink="http://www.w3.org/1999/xlink" x="0px" y="0px"
	 viewBox="0 0 496.158 496.158" style="enable-background:new 0 0 496.158 496.158;" xml:space="preserve">
<path style="fill:#EA4949;" d="M496.158,248.085c0-137.022-111.07-248.082-248.076-248.082C111.07,0.003,0,111.063,0,248.085
	c0,137.001,111.07,248.07,248.082,248.07C385.088,496.155,496.158,385.086,496.158,248.085z"/>
<polygon style="fill:#F2DE7C;" points="347.579,408.166 148.579,408.166 148.579,173.079 248.079,105.079 347.579,173.079 "/>
<path style="fill:#46729E;" d="M247.745,333.4c-77.166,0-139.095,22.054-146.407,49.333c-3.259,12.158-6.962,35.192-10.126,57.525
	c42.747,34.934,97.357,55.897,156.87,55.897c59.509,0,114.116-20.963,156.862-55.896c-3.164-22.333-6.867-45.368-10.126-57.527
	C387.506,355.454,324.911,333.4,247.745,333.4z"/>
<path style="fill:#BABABA;" d="M312.079,338.808l-12.526-8.062l-51.474-15.334l-51.473,15.333l-12.477,8.036
	c4.052-0.727,12.47,17.63,12.47,17.63h102.959c0,0,8.444-18.261,12.51-17.526L312.079,338.808z"/>
<g>
	<path style="fill:#E2A379;" d="M247.745,333.4c-13.045,0-25.594,0.834-37.578,2.013c0,0-21.598,58.167,37.915,58.167
		c59.509,0,37.921-58.313,37.921-58.313C273.817,334.05,260.997,333.4,247.745,333.4z"/>
	<path style="fill:#E2A379;" d="M286.969,282.118h-77.78c12.136,36.588,0.978,53.294,0.978,53.294s16.828,28.073,37.62,28.073
		s38.204-28.073,38.204-28.073S274.833,318.706,286.969,282.118z"/>
</g>
<path style="fill:#F4B382;" d="M327.832,175.175c0-92.429-35.707-113.596-79.752-113.596c-44.047,0-79.754,21.167-79.754,113.596
	c0,31.266,5.595,55.765,13.973,74.673c18.432,41.598,50.335,56.136,65.781,56.136s47.349-14.538,65.78-56.136
	C322.237,230.94,327.832,206.441,327.832,175.175z"/>
<path style="fill:#F2DE7C;" d="M347.302,175.175c0-92.428-44.423-113.596-99.222-113.596l0,0h-0.001h-0.001l0,0
	c-54.798,0-99.222,21.168-99.222,113.596h53.223l6-20.096l5,20.096L347.302,175.175L347.302,175.175z"/>
<path style="fill:#D6876B;" d="M274.745,263.746c0,0-14.24,9.583-26.666,9.583s-26.666-9.583-26.666-9.583
	c0-1.36,11.307-5.257,16.105-5.98c2.994-0.451,10.561,2.48,10.561,2.48s7.461-2.939,10.432-2.5
	C263.382,258.466,274.745,263.746,274.745,263.746z"/>
<path style="fill:#CC785E;" d="M274.745,263.746c0,0-14.24,13.458-26.666,13.458s-26.666-13.458-26.666-13.458
	s6.491,1.527,19.641,0.717c2.217-0.137,5.101,1.617,7.025,1.617c1.666,0,4.176-1.773,6.127-1.668
	C267.862,265.144,274.745,263.746,274.745,263.746z"/>
<g>
	<path style="fill:#F2DE7C;" d="M174.746,183.079c-0.427-2.699-0.49-5.166-0.419-7.147c0.103-2.851,0.486-4.687,0.486-4.687
		l-9.375,3.5c-0.018,1.428-0.025,2.872-0.025,4.333c0,0,1.012-0.325,2.799-0.944c-0.085,0.029-0.175,0.061-0.256,0.088
		c1.288,2.19,2.903,5.552,4.457,10.522C172.413,188.746,176.075,191.474,174.746,183.079z"/>
	<path style="fill:#F2DE7C;" d="M321.87,175.954c0.07,1.978,0.006,4.436-0.42,7.126c-1.328,8.394,2.334,5.667,2.334,5.667
		c1.55-4.96,3.154-8.322,4.432-10.516c1.619,0.557,2.529,0.849,2.529,0.849c0-1.466-0.008-2.915-0.025-4.347l-9.337-3.486
		C321.383,171.246,321.768,173.091,321.87,175.954"/>
</g>
<g>
	<ellipse style="fill:#3A3A3A;" cx="248.079" cy="281.129" rx="20.283" ry="14.274"/>
	<path style="fill:#3A3A3A;" d="M352.379,201.085c0,15.075-12.22,27.295-27.295,27.295v-54.59
		C340.159,173.79,352.379,186.011,352.379,201.085z"/>
	<path style="fill:#3A3A3A;" d="M143.779,201.085c0,15.075,12.22,27.295,27.295,27.295v-54.59
		C155.999,173.79,143.779,186.011,143.779,201.085z"/>
	<path style="fill:#3A3A3A;" d="M331.72,182.304h-6.01c0-42.806-34.826-77.63-77.631-77.63c-42.806,0-77.631,34.825-77.631,77.63
		h-6.01c0-46.12,37.521-83.641,83.641-83.641S331.72,136.184,331.72,182.304z"/>
	<path style="fill:#3A3A3A;" d="M248.079,295.745v-6.01c43.082,0,78.131-35.049,78.131-78.131h6.01
		C332.22,257.999,294.475,295.745,248.079,295.745z"/>
</g>
<path style="fill:#FFFFFF;" d="M255.759,496.024c14.574-30.564,30.152-133.945,30.152-133.945s-13.415,20.5-38.123,20.5
	c-24.709,0-37.543-20.5-37.543-20.5s15.357,103.355,30.186,133.946c2.543,0.077,5.09,0.13,7.651,0.13
	C250.651,496.155,253.208,496.102,255.759,496.024z"/>
<g>
	<path style="fill:#C7C8C9;" d="M210.167,335.412c-5.189,0.676-21.139,2.49-26.037,3.369l-0.051,0.027l8,55.271l16.334-3.667
		l-12,14.667l40.662,90.835c2.93,0.128,5.877,0.191,8.832,0.217c-7.471-32.222-31.864-137.401-32.006-137.543L210.167,335.412z"/>
	<path style="fill:#C7C8C9;" d="M299.746,405.079l-12-14.667l16.333,3.667l7.989-55.193c-4.927-0.89-20.858-2.787-26.077-3.473
		l-3.734,23.176c-0.142,0.142-24.535,105.321-32.006,137.543c2.956-0.025,5.902-0.089,8.832-0.217L299.746,405.079z"/>
</g>
<g>
</g>
<g>
</g>
<g>
</g>
<g>
</g>
<g>
</g>
<g>
</g>
<g>
</g>
<g>
</g>
<g>
</g>
<g>
</g>
<g>
</g>
<g>
</g>
<g>
</g>
<g>
</g>
<g>
</g>
</svg>
