<svg xmlns="http://www.w3.org/2000/svg" viewBox="78.426 13.425 123.16 123.16">
  <defs>
    <style>
      .cls-1 {
        fill: #22b24b;
      }

      .cls-2 {
        fill: #fff;
      }
    </style>
  </defs>
  <g id="Groupe_44" data-name="Groupe 44" transform="translate(78.426 13.425)">
    <g id="Groupe_3" data-name="Groupe 3">
      <path id="Tracé_8" data-name="Tracé 8" class="cls-1" d="M61.58,0a61.58,61.58,0,1,0,61.58,61.58A61.578,61.578,0,0,0,61.58,0Zm-14.4,80.133h-.03a14.362,14.362,0,0,1-1.869.121,13.771,13.771,0,0,1-2.05-.151l-.02-.01a2.162,2.162,0,0,1-1.6-1.377l-.05-.121L35.84,60.113,30.192,78.4a2.145,2.145,0,0,1-1.819,1.729h-.03a14.362,14.362,0,0,1-1.869.121,13.906,13.906,0,0,1-2.06-.151l-.01-.01a2.144,2.144,0,0,1-1.568-1.3l-.07-.2-9.6-32.333h-.01a1.364,1.364,0,0,1-.03-.291,1.254,1.254,0,0,1,.895-1.2l.02-.01a9.828,9.828,0,0,1,3-.462,10.147,10.147,0,0,1,2.08.221l.03.01a2.059,2.059,0,0,1,1.437,1.317h0v.02h0l6.091,21.538,5.548-21.418a.837.837,0,0,1,.04-.151l.02-.07h.01a2.068,2.068,0,0,1,1.688-1.377h.03a13.488,13.488,0,0,1,1.819-.121,13.1,13.1,0,0,1,2,.151l.02.01a2.066,2.066,0,0,1,1.508,1.246l.03-.01,5.638,21.77,6.081-21.508h0v-.01h0A2.079,2.079,0,0,1,52.545,44.6l.03-.01a10.147,10.147,0,0,1,2.08-.221,9.828,9.828,0,0,1,3,.462l.02.01a1.242,1.242,0,0,1,.895,1.2,1.364,1.364,0,0,1-.03.291h-.01L49.037,78.3A2.265,2.265,0,0,1,47.178,80.133Zm31.83,0h-.03a14.361,14.361,0,0,1-1.869.121,13.906,13.906,0,0,1-2.06-.151l-.01-.01a2.135,2.135,0,0,1-1.709-1.859s-.01-.211-.01-.241v-.382c-1.317,2.181-4.171,3.035-6.563,3.035-7.076,0-11.538-5.457-11.538-12.282,0-6.694,4.633-12.242,11.538-12.242,2.442,0,5.146.895,6.563,3.015V58.6h0a2.13,2.13,0,0,1,1.719-1.97l.01-.01a13.905,13.905,0,0,1,2.06-.151,14.362,14.362,0,0,1,1.869.121h.03a2.134,2.134,0,0,1,1.819,1.739l.02,19.89A2.128,2.128,0,0,1,79.008,80.133Zm20.2-18.192-.01.01A1.976,1.976,0,0,1,97.32,63.54h0c-2.935.08-5.287.623-5.468,3.859l-.02,10.764v.07a2.145,2.145,0,0,1-1.839,1.89h-.02a14.671,14.671,0,0,1-1.89.131,13.771,13.771,0,0,1-2.05-.151l-.02-.01A2.135,2.135,0,0,1,84.3,78.234l-.01-18.463h0V59.63h.01a2.02,2.02,0,0,1,.9-1.558l.02-.02a9.242,9.242,0,0,1,3.869-1.4l.09-.01a1.557,1.557,0,0,1,.221-.01,2.016,2.016,0,0,1,2.01,1.94h.01v1.246h.06c1.216-2.382,3.136-3.266,5.809-3.266h0a1.973,1.973,0,0,1,1.9,1.709v.03a12.278,12.278,0,0,1,.121,1.729A9.966,9.966,0,0,1,99.21,61.942Zm6.734-15.217a4.111,4.111,0,1,1-4.111,4.111A4.109,4.109,0,0,1,105.943,46.725Zm1.92,33.408h-.03a14.362,14.362,0,0,1-1.869.121,13.907,13.907,0,0,1-2.06-.151l-.01-.01a2.135,2.135,0,0,1-1.709-1.859l-.01-18.6h0a2.126,2.126,0,0,1,.965-1.658l.02-.02a9.765,9.765,0,0,1,4.1-1.477s.251-.03.322-.03a2.133,2.133,0,0,1,2.121,1.879v19.89A2.128,2.128,0,0,1,107.863,80.133Z"/>
      <path id="Tracé_9" data-name="Tracé 9" class="cls-1" d="M623.369,622.3a5.852,5.852,0,0,0,.04,11.7,5.579,5.579,0,0,0,5.528-4.181v-3.377A5.6,5.6,0,0,0,623.369,622.3Z" transform="translate(-555.617 -559.755)"/>
    </g>
    <path id="Tracé_10" data-name="Tracé 10" class="cls-2" d="M164.651,476.361h-.03a14.355,14.355,0,0,1-1.869.121,13.775,13.775,0,0,1-2.05-.151l-.02-.01a2.162,2.162,0,0,1-1.6-1.377l-.05-.121-5.719-18.483-5.648,18.292a2.145,2.145,0,0,1-1.819,1.729h-.03a14.355,14.355,0,0,1-1.869.121,13.911,13.911,0,0,1-2.06-.151l-.01-.01a2.144,2.144,0,0,1-1.568-1.3l-.07-.2-9.6-32.333h-.01a1.364,1.364,0,0,1-.03-.292,1.254,1.254,0,0,1,.895-1.2l.02-.01a9.826,9.826,0,0,1,3-.462,10.149,10.149,0,0,1,2.08.221l.03.01a2.059,2.059,0,0,1,1.437,1.317h0v.02h0l6.091,21.539,5.548-21.418a.836.836,0,0,1,.04-.151l.02-.07h.01a2.068,2.068,0,0,1,1.689-1.377h.03a13.482,13.482,0,0,1,1.819-.121,13.1,13.1,0,0,1,2,.151l.02.01a2.066,2.066,0,0,1,1.508,1.246l.03-.01,5.638,21.77,6.081-21.508h0v-.01h0a2.078,2.078,0,0,1,1.437-1.317l.03-.01a10.144,10.144,0,0,1,2.08-.221,9.828,9.828,0,0,1,3,.462l.02.01a1.242,1.242,0,0,1,.895,1.2,1.364,1.364,0,0,1-.03.291H176l-9.488,31.971A2.265,2.265,0,0,1,164.651,476.361Z" transform="translate(-117.474 -396.227)"/>
    <path id="Tracé_11" data-name="Tracé 11" class="cls-2" d="M853.615,568.087l-.01.01a1.977,1.977,0,0,1-1.88,1.588h0c-2.935.08-5.287.623-5.468,3.859l-.02,10.764v.07a2.145,2.145,0,0,1-1.839,1.89h-.02a14.673,14.673,0,0,1-1.89.131,13.766,13.766,0,0,1-2.05-.151l-.02-.01a2.135,2.135,0,0,1-1.708-1.859l-.01-18.463h0v-.141h.01a2.02,2.02,0,0,1,.9-1.558l.02-.02a9.241,9.241,0,0,1,3.869-1.4l.09-.01a1.554,1.554,0,0,1,.221-.01,2.016,2.016,0,0,1,2.01,1.94h.01v1.246h.06c1.216-2.382,3.136-3.266,5.809-3.266h0a1.974,1.974,0,0,1,1.9,1.709v.03a12.313,12.313,0,0,1,.12,1.729A9.968,9.968,0,0,1,853.615,568.087Z" transform="translate(-754.406 -506.145)"/>
    <path id="Tracé_12" data-name="Tracé 12" class="cls-2" d="M1017.311,464.9a4.111,4.111,0,1,1-4.111,4.111A4.109,4.109,0,0,1,1017.311,464.9Z" transform="translate(-911.367 -418.175)"/>
    <path id="Tracé_13" data-name="Tracé 13" class="cls-2" d="M1022.289,585.289h-.03a14.36,14.36,0,0,1-1.87.121,13.894,13.894,0,0,1-2.06-.151l-.01-.01a2.135,2.135,0,0,1-1.709-1.859l-.01-18.6h0a2.126,2.126,0,0,1,.965-1.658l.02-.02a9.767,9.767,0,0,1,4.1-1.478s.251-.03.322-.03a2.133,2.133,0,0,1,2.121,1.88v19.89A2.128,2.128,0,0,1,1022.289,585.289Z" transform="translate(-914.426 -505.156)"/>
    <path id="Tracé_14" data-name="Tracé 14" class="cls-2" d="M575.009,560.9a2.134,2.134,0,0,0-1.819-1.739h-.03a14.367,14.367,0,0,0-1.869-.12,13.905,13.905,0,0,0-2.06.151l-.01.01a2.13,2.13,0,0,0-1.719,1.97h0v.543c-1.417-2.121-4.121-3.015-6.563-3.015-6.9,0-11.538,5.538-11.538,12.242,0,6.824,4.472,12.282,11.538,12.282,2.392,0,5.246-.854,6.563-3.035v.382c0,.03.01.241.01.241a2.146,2.146,0,0,0,1.709,1.859l.01.01a13.905,13.905,0,0,0,2.06.151,14.356,14.356,0,0,0,1.869-.121h.03a2.125,2.125,0,0,0,1.839-1.89ZM567.5,572.61a5.579,5.579,0,0,1-5.528,4.181,5.852,5.852,0,0,1-.04-11.7,5.59,5.59,0,0,1,5.568,4.141Z" transform="translate(-494.182 -502.547)"/>
  </g>
</svg>
